<?xml version="1.0" encoding="UTF-8"?>
<svg width="24px" height="24px" viewBox="0 0 24 24" version="1.1" xmlns="http://www.w3.org/2000/svg" xmlns:xlink="http://www.w3.org/1999/xlink">
    <!-- Generator: Sketch 58 (84663) - https://sketch.com -->
    <title>icon-ui-chevron-solid-right</title>
    <desc>Created with Sketch.</desc>
    <g id="Symbols" stroke="none" stroke-width="1" fill="none" fill-rule="evenodd">
        <g id="icon-ui-chevron-solid-right" fill="#534588">
            <path d="M17.592233,12.95625 L9.66990291,20.60625 C9.39805796,20.8687503 9.06796146,21 8.67961165,21 C8.29126184,21 7.96116534,20.8687503 7.68932039,20.60625 L6.40776699,19.3125 C6.13592203,19.0499997 6,18.7312503 6,18.35625 C6,17.9812497 6.13592203,17.6625003 6.40776699,17.4 L12,12 L6.40776699,6.6 C6.13592203,6.33749971 6,6.01875029 6,5.64375 C6,5.26874971 6.13592203,4.95000029 6.40776699,4.6875 L7.68932039,3.39375 C7.96116534,3.13124971 8.29126184,3 8.67961165,3 C9.06796146,3 9.39805796,3.13124971 9.66990291,3.39375 L17.592233,11.04375 C17.864078,11.3062503 18,11.6249997 18,12 C18,12.3750003 17.864078,12.6937497 17.592233,12.95625 Z" id="Icon"></path>
        </g>
    </g>
</svg>