<svg id="Layer_1" data-name="Layer 1" xmlns="http://www.w3.org/2000/svg" viewBox="0 0 193.55776 94.03704"><defs><style>.cls-1{fill:#010101;}.cls-2{fill:#0075c9;}.cls-3{fill:#0277ba;}</style></defs><title>CW_KDTB_200x100_Option1</title><path class="cls-1" d="M79.48921,32.41572l-1.23509-1.13217a1.09235,1.09235,0,0,0-1.23509.10293c-2.26434,1.74972-4.32283,3.08774-7.71935,3.08774A11.38007,11.38007,0,0,1,58.08089,22.94665,11.4704,11.4704,0,0,1,69.29968,11.31616,12.28749,12.28749,0,0,1,77.019,14.301c.30878.30877.51462.4117.72047.4117a.8896.8896,0,0,0,.61754-.30878l1.13217-1.13217a.92557.92557,0,0,0-.10292-1.44094,15.07718,15.07718,0,0,0-20.68786.61755,15.03918,15.03918,0,0,0-4.42576,10.60124,14.791,14.791,0,0,0,4.42576,10.60124,14.94334,14.94334,0,0,0,10.60124,4.32284,14.32787,14.32787,0,0,0,10.08662-4.01407,1.1687,1.1687,0,0,0,.30878-.82339C79.798,32.7245,79.69506,32.51864,79.48921,32.41572Z" transform="translate(-2.44224 -2.7066)"/><path class="cls-1" d="M90.81093,20.16768a9.07961,9.07961,0,0,0-5.35208,1.95557V9.25767a.92247.92247,0,0,0-.92633-.92632h-1.2351a.92247.92247,0,0,0-.92632.92632V36.42978a.92248.92248,0,0,0,.92632.92633h1.2351a.92248.92248,0,0,0,.92632-.92633v-10.91a7.93757,7.93757,0,0,1,5.14623-2.16142c2.26434,0,3.49944,1.54387,3.49944,4.42576v8.64567a.92248.92248,0,0,0,.92633.92633h1.338a.92248.92248,0,0,0,.92633-.92633V27.78411C97.3981,22.94665,95.03084,20.16768,90.81093,20.16768Z" transform="translate(-2.44224 -2.7066)"/><path class="cls-1" d="M102.85311,12.55126a2.11059,2.11059,0,0,0-2.16142,2.16142,2.174,2.174,0,0,0,2.16142,2.16142,2.11059,2.11059,0,0,0,2.16142-2.16142A2.174,2.174,0,0,0,102.85311,12.55126Z" transform="translate(-2.44224 -2.7066)"/><path class="cls-1" d="M103.47066,20.57938h-1.2351a.92247.92247,0,0,0-.92632.92633V36.32686a.92247.92247,0,0,0,.92632.92632h1.2351a.92247.92247,0,0,0,.92632-.92632V21.60863A.94613.94613,0,0,0,103.47066,20.57938Z" transform="translate(-2.44224 -2.7066)"/><path class="cls-1" d="M110.88124,8.33135h-1.23509a.92247.92247,0,0,0-.92633.92632V36.42978a.92248.92248,0,0,0,.92633.92633h1.23509a.92248.92248,0,0,0,.92632-.92633V9.25767A.92248.92248,0,0,0,110.88124,8.33135Z" transform="translate(-2.44224 -2.7066)"/><path class="cls-1" d="M128.996,8.33135h-1.23509a.92247.92247,0,0,0-.92633.92632V21.094a9.76577,9.76577,0,0,0-4.21991-.92632c-4.73453,0-8.02812,3.60236-8.02812,8.74859,0,4.83746,3.39651,8.85153,7.61642,8.85153a7.67,7.67,0,0,0,4.94039-1.95557l.20585.72047a.90113.90113,0,0,0,.92632.8234h.8234a.92247.92247,0,0,0,.92632-.92633V9.25767A1.09449,1.09449,0,0,0,128.996,8.33135Zm-2.26434,15.95332v8.02812a5.1458,5.1458,0,0,1-4.32283,2.57312c-3.08774,0-4.73453-2.98482-4.73453-5.86671,0-3.49943,1.95557-5.66085,5.14623-5.66085A9.09016,9.09016,0,0,1,126.73163,24.28467Z" transform="translate(-2.44224 -2.7066)"/><path class="cls-1" d="M144.43467,20.99108c-.41169-.61755-1.85265-.82339-2.98481-.82339a6.64158,6.64158,0,0,0-4.83745,1.95556l-.20585-.82339a.90161.90161,0,0,0-.92632-.72048h-.72048a.92247.92247,0,0,0-.92632.92633V36.32686a.92247.92247,0,0,0,.92632.92632h1.23509a.92246.92246,0,0,0,.92632-.92632V25.51977a5.17325,5.17325,0,0,1,4.32283-2.16142,5.05579,5.05579,0,0,1,1.54387.30877,1.12742,1.12742,0,0,0,.8234,0,1.02745,1.02745,0,0,0,.41169-.51462l.51463-1.441A.63392.63392,0,0,0,144.43467,20.99108Z" transform="translate(-2.44224 -2.7066)"/><path class="cls-1" d="M152.77158,20.16768a7.80211,7.80211,0,0,0-6.07255,2.67605,9.22433,9.22433,0,0,0-2.16143,6.17548c0,5.14623,3.49943,8.85152,8.234,8.85152a10.17777,10.17777,0,0,0,6.17548-1.95557c.30877-.20585.51462-.4117.51462-.61755a.93439.93439,0,0,0-.30878-.72047,1.807,1.807,0,0,0-.41169-.51462c-.10293-.10293-.20585-.30878-.30878-.41171-.41169-.51462-.8234-.30877-1.23509-.10292l-.10293.10292a7.27481,7.27481,0,0,1-3.91114,1.2351,5.43893,5.43893,0,0,1-5.24917-4.94038h11.63049a.90739.90739,0,0,0,.92632-.8234c0-.30877.10293-.82339.10293-1.13217C160.388,23.46127,157.19734,20.16768,152.77158,20.16768Zm4.32283,7.10181h-9.36615a4.98324,4.98324,0,0,1,4.94039-4.117A4.394,4.394,0,0,1,157.09441,27.26949Z" transform="translate(-2.44224 -2.7066)"/><path class="cls-1" d="M171.298,20.16768a9.62094,9.62094,0,0,0-5.66086,2.0585l-.30878-1.02925a.78266.78266,0,0,0-.8234-.61755h-.8234a.92246.92246,0,0,0-.92631.92632V36.32686a.92246.92246,0,0,0,.92631.92632h1.23509a.92246.92246,0,0,0,.92632-.92632V25.51977a7.85879,7.85879,0,0,1,5.14623-2.26435c2.26434,0,3.49944,1.54387,3.49944,4.42576v8.64568a.92246.92246,0,0,0,.92631.92632h1.338a.92246.92246,0,0,0,.92631-.92632V27.68119C177.88519,22.7408,175.62085,20.16768,171.298,20.16768Z" transform="translate(-2.44224 -2.7066)"/><path class="cls-1" d="M181.17879,17.18287a1.44095,1.44095,0,0,0,0,2.88189h.10293a3.32086,3.32086,0,0,1-1.23509,2.36727h0c-.20585.10292-.20585.30877-.30878.51462a.37809.37809,0,0,0,.10293.30877l.30878.30878c.10293.10292.20585.20585.30878.20585a.78027.78027,0,0,0,.41169-.20585,5.95272,5.95272,0,0,0,1.85265-4.117C182.72266,17.38872,181.59048,17.18287,181.17879,17.18287Z" transform="translate(-2.44224 -2.7066)"/><path class="cls-1" d="M190.442,27.26949l-.20584-.10293c-1.54387-.72047-2.779-1.338-2.779-2.57311,0-.30878.20585-1.441,2.16143-1.441a8.35644,8.35644,0,0,1,3.19067.92632,1.09359,1.09359,0,0,0,.8234.10293,1.05411,1.05411,0,0,0,.61755-.51463l.30878-.61754a1.24566,1.24566,0,0,0-.30878-1.54387,8.842,8.842,0,0,0-4.63161-1.338c-3.91114,0-5.35208,2.676-5.35208,4.42576,0,2.88189,2.47019,4.32284,4.73454,5.455,2.36727,1.13217,3.49944,1.85264,3.49944,3.08774,0,1.02924-1.02925,1.74972-2.47019,1.74972a5.99278,5.99278,0,0,1-3.70529-1.441,1.384,1.384,0,0,0-.8234-.20585.68386.68386,0,0,0-.51463.4117c0,.10292-.10293.20585-.20584.4117a3.20407,3.20407,0,0,1-.4117.61755h0a.93584.93584,0,0,0,.30878,1.13217,8.46949,8.46949,0,0,0,5.455,1.85264,6.5448,6.5448,0,0,0,4.21992-1.44095A4.67117,4.67117,0,0,0,196,32.82742C195.897,29.84261,193.118,28.50458,190.442,27.26949Z" transform="translate(-2.44224 -2.7066)"/><path class="cls-2" d="M95.33961,41.88479h-.61755a.65232.65232,0,0,0-.61755.51463L89.8846,57.11764,85.45884,42.60526a.68912.68912,0,0,0-.72047-.4117h-.10292a.6891.6891,0,0,0-.72047.4117L79.48921,57.11764,75.2693,42.39941a.65231.65231,0,0,0-.61754-.51462H74.0342a.66526.66526,0,0,0-.51462.20585.52152.52152,0,0,0-.10292.51462l5.35208,18.42352a.68383.68383,0,0,0,.51462.4117h.30878c.30877,0,.4117-.10292.61754-.4117l4.52869-14.82115,4.52869,14.82115a.68385.68385,0,0,0,.51462.4117h.30878c.20584,0,.51462-.20585.51462-.4117l5.24916-18.42352a.52155.52155,0,0,0-.10292-.51462A.41094.41094,0,0,0,95.33961,41.88479Z" transform="translate(-2.44224 -2.7066)"/><path class="cls-2" d="M98.83905,45.28131A1.18915,1.18915,0,0,0,97.604,46.5164a1.25154,1.25154,0,0,0,1.2351,1.2351,1.18915,1.18915,0,0,0,1.23509-1.2351A1.25152,1.25152,0,0,0,98.83905,45.28131Z" transform="translate(-2.44224 -2.7066)"/><path class="cls-2" d="M99.14782,49.91292H98.6332a.6641.6641,0,0,0-.61755.61754v9.9837a.59325.59325,0,0,0,.61755.61754h.51462a.59325.59325,0,0,0,.61755-.61754v-9.9837A.66411.66411,0,0,0,99.14782,49.91292Z" transform="translate(-2.44224 -2.7066)"/><path class="cls-2" d="M106.66132,54.54453c-1.54387-.51463-2.36727-1.02925-2.36727-1.85265,0-.51462.4117-1.44094,1.95557-1.44094a4.09488,4.09488,0,0,1,2.26434.72047.67039.67039,0,0,0,.92632-.20585l.20585-.30877a.6704.6704,0,0,0-.20585-.92633,5.52282,5.52282,0,0,0-3.19066-.92632c-2.779,0-3.80821,1.85264-3.80821,3.08774,0,1.95557,1.74972,2.88189,3.49944,3.39651,1.85265.72048,2.779,1.13217,2.779,2.16142,0,.92632-.92632,1.54387-2.26434,1.54387a5.22862,5.22862,0,0,1-2.676-.92633c-.20584-.10292-.30877-.20585-.51462-.20585s-.30878.10293-.4117.30878l-.30878.4117h0c-.20584.30877,0,.61754.20585.82339a5.99316,5.99316,0,0,0,3.70529,1.2351c2.26434,0,4.117-1.441,4.117-3.29359C110.67538,56.0884,108.71981,55.36792,106.66132,54.54453Z" transform="translate(-2.44224 -2.7066)"/><path class="cls-2" d="M122.30588,58.24981a.78624.78624,0,0,0-.51463-.20585c-.20584,0-.30878.10293-.51462.30878h0a4.251,4.251,0,0,1-3.08774,1.44094,4.15217,4.15217,0,0,1-4.117-4.21991,4.06411,4.06411,0,0,1,4.117-4.117,4.72363,4.72363,0,0,1,2.88189,1.13217.79178.79178,0,0,0,1.02925.10292l.20585-.20585a.78027.78027,0,0,0,.20584-.4117.928.928,0,0,0-.10292-.51463,5.236,5.236,0,0,0-4.21991-1.85264,5.97393,5.97393,0,0,0-5.96964,5.96963,5.909,5.909,0,0,0,5.96964,5.96963,5.42168,5.42168,0,0,0,4.42576-2.16141.64562.64562,0,0,0-.10292-.8234Z" transform="translate(-2.44224 -2.7066)"/><path class="cls-2" d="M130.23108,49.60414a5.924,5.924,0,1,0,5.66086,5.86671A5.75635,5.75635,0,0,0,130.23108,49.60414Zm3.91112,5.96963a3.92244,3.92244,0,1,1-7.82228,0,3.91629,3.91629,0,1,1,7.82228,0Z" transform="translate(-2.44224 -2.7066)"/><path class="cls-2" d="M143.92005,49.60414a5.95724,5.95724,0,0,0-3.7053,1.338v-.51462a.65232.65232,0,0,0-.61755-.51462h-.30878a.68828.68828,0,0,0-.72047.61754v9.9837a.59325.59325,0,0,0,.61756.61754h.51462a.59326.59326,0,0,0,.61755-.61754v-7.5135a5.19945,5.19945,0,0,1,3.49944-1.6468c2.36727,0,2.88189,1.85265,2.88189,3.39652v5.76378a.66411.66411,0,0,0,.61756.61754h.51462a.6641.6641,0,0,0,.61755-.61754V54.8533C148.55166,51.45679,146.90487,49.60414,143.92005,49.60414Z" transform="translate(-2.44224 -2.7066)"/><path class="cls-2" d="M155.24176,54.54453c-1.54387-.51463-2.36727-1.02925-2.36727-1.85265,0-.51462.41169-1.44094,1.95556-1.44094a4.09484,4.09484,0,0,1,2.26434.72047.67039.67039,0,0,0,.92632-.20585l.20585-.30877a.6704.6704,0,0,0-.20585-.92633,5.5228,5.5228,0,0,0-3.19067-.92632c-2.779,0-3.80821,1.85264-3.80821,3.08774,0,1.95557,1.74971,2.88189,3.49943,3.39651,1.85265.72048,2.779,1.13217,2.779,2.16142,0,.92632-.92631,1.54387-2.26434,1.54387a5.22859,5.22859,0,0,1-2.676-.92633c-.20585-.10292-.30878-.20585-.51463-.20585s-.30877.10293-.41169.30878l-.30878.4117h0c-.20584.30877,0,.61754.20585.82339a5.99316,5.99316,0,0,0,3.70529,1.2351c2.26434,0,4.117-1.441,4.117-3.29359C159.1529,56.0884,157.30026,55.36792,155.24176,54.54453Z" transform="translate(-2.44224 -2.7066)"/><path class="cls-2" d="M162.8582,49.91292h-.51463a.66411.66411,0,0,0-.61755.61754v9.9837a.59325.59325,0,0,0,.61755.61754h.51463a.59326.59326,0,0,0,.61755-.61754v-9.9837A.66411.66411,0,0,0,162.8582,49.91292Z" transform="translate(-2.44224 -2.7066)"/><path class="cls-2" d="M162.54942,45.28131a1.18915,1.18915,0,0,0-1.23509,1.23509,1.25153,1.25153,0,0,0,1.23509,1.2351,1.18915,1.18915,0,0,0,1.23509-1.2351A1.25152,1.25152,0,0,0,162.54942,45.28131Z" transform="translate(-2.44224 -2.7066)"/><path class="cls-2" d="M172.22433,49.60414a5.95721,5.95721,0,0,0-3.70529,1.338v-.51462a.65233.65233,0,0,0-.61756-.51462h-.30877a.68828.68828,0,0,0-.72047.61754v9.9837a.59325.59325,0,0,0,.61755.61754h.51462a.59326.59326,0,0,0,.61756-.61754v-7.5135a5.19942,5.19942,0,0,1,3.49943-1.6468c2.36727,0,2.8819,1.85265,2.8819,3.39652v5.76378a.6641.6641,0,0,0,.61755.61754h.51462a.66411.66411,0,0,0,.61756-.61754V54.8533C176.85594,51.45679,175.20916,49.60414,172.22433,49.60414Z" transform="translate(-2.44224 -2.7066)"/><path class="cls-3" d="M48.71474,40.34092" transform="translate(-2.44224 -2.7066)"/><path class="cls-3" d="M51.69955,38.79705a18.85714,18.85714,0,0,0-.62383-3.03023c-.14932-1.06374-.32191-2.12547-.532-3.17893a21.83464,21.83464,0,0,0-2.03481-5.3184c.48636-.29182,1.14741-.44151,1.02728-1.03333a5.2649,5.2649,0,0,0-.50348-1.04725c-.63089-1.31224-1.24833-2.632-1.893-3.93747-1.07882-2.18465-2.64567-4.48044-5.218-4.99489h-.20585c-.558-.44581-.4-1.08931-.10293-1.6468.62441.60184,1.094-.14721,1.36532-.6585.29782-.56128,1.1202-1.3816.59025-2.01754,0,0,.10292-.10292-.30878-.10292a9.1563,9.1563,0,0,0,.36435-2.14135,5.4295,5.4295,0,0,0-.1585-2.799l.20585.30878a4.86336,4.86336,0,0,0-1.02924-1.85265l.30877.10293c-.18107-.21156-.40814-.24228-.61755-.4117-.20126-.16282-.32962-.43255-.51462-.61755l.20585.4117a5.42527,5.42527,0,0,0-4.42576-.51462l.51462.10292a6.75915,6.75915,0,0,0-2.26434,1.02925l.30877-.10293c-.86206.88141-2.21071,2.52818-1.74971,3.91114l.10292-.4117a19.2593,19.2593,0,0,0,.06481,3.47994c.08325.68469-.21645,1.32829-.09512,2.02193a4.50571,4.50571,0,0,0,1.05956,1.80578,8.7427,8.7427,0,0,1-1.95557.92632,9.22767,9.22767,0,0,0-1.98295,1.00847,11.49719,11.49719,0,0,0-1.93577,3.88309A17.115,17.115,0,0,0,28.64442,26.549l.61755.4117a22.66847,22.66847,0,0,0-.8234,5.35208,3.15421,3.15421,0,0,1-.68243-1.81253,28.65429,28.65429,0,0,1-.392-3.69835,10.67587,10.67587,0,0,0-.39241-2.7075,8.03422,8.03422,0,0,1-.59162-3.0004l.30877-.20585a6.91151,6.91151,0,0,0-.3837-1.8748,3.61761,3.61761,0,0,0-1.26309-1.21294h-.10293v-.10293h0A3.89162,3.89162,0,0,0,23.78,17.10493c-.36144-.18476-.69728-.42446-1.0529-.6215-.4377-.24254-.90035-.44887-1.32813-.70834-.30363-.18417-.72571-.65071-1.09143-.65071a1.32128,1.32128,0,0,0,.82339-.20585h.10293a12.55041,12.55041,0,0,0,1.44666-2.02872c.5454-.84084.30975-1.66452.406-2.60289a13.04685,13.04685,0,0,0,0-3.29359c.32081-.32081-.04817-1.34352-.29734-1.6387-.32975-.39064-.88284-.57073-1.24653-.93442,0-.23655-.25089-.61755-.51462-.61755,0-.6821-1.35761-.77439-1.74972-.61755,0-.10292-.10293-.10292-.20585-.10292A1.515,1.515,0,0,0,17.765,2.74527c-.16891.0366-.95687.24211-.95687.43984a2.04361,2.04361,0,0,0-2.16142.8234c-.77895-.77894-1.605,2.18065-1.74972,2.47019-1.17259,0-.30326,3.27248-.20585,3.80822-.10292,0-.10292.10292-.20585.10292-.8035.80351-.1815,1.44648-.4117,2.36727-.42879.2144-.76808.62526-.51462,1.13217-.20585.20585-.4117.51462-.20585.72047a.37812.37812,0,0,0-.10292.30877,1.47292,1.47292,0,0,0-.92633,1.338l-.10292.10292h0c-1.37662.59769-1.55129,1.85645-1.6468,3.19067l.51463.41169a5.70323,5.70323,0,0,1-.83484,2.86538,9.92384,9.92384,0,0,0-.962,2.68717,35.217,35.217,0,0,1-.95845,3.5647c-.26377.76216-.41326,1.5244-1.15584,1.89569a3.67451,3.67451,0,0,0-1.338,1.02925h0c-.46777.37422-1.48635.96519-1.39109,1.679.0609.45638.21376.22577.48165-.05933.24387-.25955.43916-.54757.70359-.79623l.10292.10293c-.14442.147-1.37307,1.51593-1.20293,1.83173.33472.62128,1.12138-1.31711,1.51171-1.31711-.18408.3068-1.22007,1.60465-1.1,1.93467.20346.55925.71061-.25376.84913-.44307a10.93194,10.93194,0,0,1,.97135-.977l.10293.10293c-.18939.22726-1.10352,1.14837-1.02925,1.44094.16529.65115.98319-.53425,1.13217-.72048-.07065.17637-.13975.73561.16011.73573.2331.00008.48113-.61846.57752-.78719a7.68533,7.68533,0,0,0,.70332-2.11h0c.658-1.31607,1.67672-2.46061,2.38585-3.76459.37881-.69657.75416-1.3953,1.11358-2.10211a6.75485,6.75485,0,0,0,.59285-1.70443c.07716-.3637.05914-1.21191.33348-1.48624a21.31,21.31,0,0,1,.61141,3.53042,25.65749,25.65749,0,0,1-.41252,2.59718c-.16529,1.35594-.31673,2.71341-.44334,4.07356a41.98671,41.98671,0,0,0-.28761,5.81123,5.28394,5.28394,0,0,0,.21042,1.78072c.2626.30285,1.34413.19081,1.76258.21871.29561,1.1607.70241,2.28272,1.03995,3.42986.15986.54326.19088,1.815.60685,2.231.09278.56025.10107,1.12812.1971,1.68792a4.504,4.504,0,0,0,.42045,1.50275c-.22074.344.15867,1.3866.28736,1.78842.168.52447.3206,1.05382.49067,1.57775.1731.53327.37328,1.043.593,1.55389.1244.28921.39283,1.41689.68744,1.5642a.80626.80626,0,0,0,.20585.72047c-.01767.12567-.09037.52718,0,.61755,0,0,0,.4117.20585.51463-.28008.25126-.23745.64686-.33165.98064-.1211.42913-.26859.85178-.38883,1.2837-.07952.08231-.74363,1.02925-.30877,1.02925-.429.429-1.179,1.04628-.84913,1.724.36574.75149,1.79715.64569,2.469.63.40972-.00956,1.14372.01821,1.46787-.29551.31855-.3083.33563-1.05688.599-1.44381.33873-.49771,2.10746-1.989.9449-2.57026-.07846-.50388-.15646-2.20053-.82339-2.36726-.17061-.84055-.29761-1.67309-.45452-2.51466-.16982-.9108.01183-1.77041-.12556-2.67613a5.148,5.148,0,0,0-.58306-1.73692c-.31232-.50382-.63893-.76326-.68951-1.37072-.21787-2.61681,0-5.33585,0-7.96367l1.64679,7.9252c-.33745.99832.61755,1.69706.61755,2.676h0c0,.6835.54,1.263.72128,1.89446.18938.65963.04669,1.37952.20234,2.05349a1.63328,1.63328,0,0,0,3.16633.38363,3.97313,3.97313,0,0,0-.06683-3.25128A17.84158,17.84158,0,0,1,23.7555,51.148a12.39623,12.39623,0,0,1-.36419-1.52072,4.99876,4.99876,0,0,0-.71652-2.80212s0-.30877-.20585-.4117c0,0,0-.4117-.20585-.51462.43689-1.30782.51181-2.72047,1.02925-4.01407h.4117a31.77067,31.77067,0,0,0,1.11379-5.59844,16.01177,16.01177,0,0,0-1.31964-7.16421h-.10292c-.37476-.7673-.06881-2.11731-.0534-2.93408.01844-.9773.04852-1.95515.0534-2.93262a5.40085,5.40085,0,0,1,.23219,2.12436,7.54922,7.54922,0,0,0,.43116,2.02709c.324.958.63833,1.91958.986,2.86936.24562.671.55489,1.28864.86323,1.93183a13.07971,13.07971,0,0,1,.64642,1.44217,5.9375,5.9375,0,0,0,.54626,1.54445c0,.86668.40412,3.37553,1.85265,2.47019.20585.20585.30877,0,.30877,0a1.22858,1.22858,0,0,0,.51462-.20585,1.03679,1.03679,0,0,0-.10292-.30877h0c.05476-.10952.1471-.72047.30877-.72047h0c.49724-1.2431-.30493-2.59709.17556-3.78833.5614-1.39187,1.20275-2.75145,1.78-4.13687a41.42439,41.42439,0,0,0,.21125,4.68382,7.09941,7.09941,0,0,1-.31417,2.52091c-.07564.313-.70041,1.54788-.20585,1.64679a20.85342,20.85342,0,0,1-.2527,4.19867,15.2508,15.2508,0,0,0-.57071,3.72653s.72048.20585,1.02925.30878C31.757,48.579,33.276,51.33121,33.276,54.33868a.82308.82308,0,0,0,.10293.8234s-.30878.10292-.30878.30877c-.33056-.0405-.45858.2512-.4117.56609.03417.2295.27392.38585.20585.46316a4.86967,4.86967,0,0,0-.51462,1.74972c-.43028.78158-.859,2.08728-.08849,2.79511a3.05019,3.05019,0,0,0,2.60249.34394c1.275-.39337,1.04343-1.45971,1.25611-2.4912.14487-.70266,1.21352-1.80316.65565-2.5005a3.77652,3.77652,0,0,0-.23253-1.87933c-.0948-.19929-.51864-1.31133-.69379-1.31133-.0297-1.19746-.05542-2.39625-.04428-3.5941.00443-.47635.04678-.94878.05817-1.42389.01391-.58-.47384-1.67855-.21974-2.18674.874.467.6837-1.074.89941-1.62414.10984-.28014.35-.49025.46954-.777.1086-.26053-.11168-1.0983-.03093-1.0983.11893-.24791.81937-1.95193,1.10677-1.882.07774.0189-.20356,3.0193-.20014,3.30733.00538.453-.24564,2.42469.43139,2.28,1.14281,3.71411,1.13217,7.764,1.13217,11.63049-.23217.26659-.62966,1.21239-.41168,1.54387-.49058.70363-.36006,1.86791-.61755,2.676-.38437.40841-1.06239,1.48869-.67473,2.08136.29914.45736,1.53089.39134,1.97606.40656.749.02559,1.90823.09653,2.49481-.47915.34086-.33452.94012-1.543.62962-2.00877a3.593,3.593,0,0,0-.10293-2.26434s0-.51463-.20585-.4117a.80372.80372,0,0,0-.20585-.51463c.25157-1.761.44963-3.53025.643-5.29843.23319-2.13267.89015-4.99252-.02541-7.05253.3912,0,1.34841.19545,1.6468-.10292.78739-.19779,1.265-.10209,1.10005-.95679a18.50709,18.50709,0,0,1-.2775-2.9751c-.04584-1.50718-.17149-3.0071-.30793-4.50793.5467-.23726.26441-1.19133,0-1.54387a29.02363,29.02363,0,0,1-.15439-4.68308,22.85584,22.85584,0,0,0-.03106-2.3293,14.73955,14.73955,0,0,1-.32917-2.55962c.0195.156.02891,1.22063.41169,1.02925,1.17524,2.46791,2.604,4.807,3.77449,7.278a2.70533,2.70533,0,0,1,.328,1.32744c-.00191.70744.1631,1.26766.22032,1.94622.02954.35034-.17564,1.29055.51844,1.05593.51731-.17486.2098-1.11664.40788-1.521a2.35841,2.35841,0,0,1-.10292,2.05849c-.57574.00221-.899.72048-.10293.72048.35033.31072,1.0688-.55418,1.338-.8234A1.37666,1.37666,0,0,0,51.69955,38.79705ZM12.38233,15.43315h0c.325-.325.86118-.71526.51462-1.23509,1.02929.25732.78745-.5816,1.338-1.13218a.665.665,0,0,0,.92632-.10292c.13314.33285.45614.98809.24455,1.33143-.13789.22376-.45756.28109-.71256.37224C13.92914,14.93978,13.15208,15.17657,12.38233,15.43315Z" transform="translate(-2.44224 -2.7066)"/><path class="cls-1" d="M79.48921,32.41572l-1.23509-1.13217a1.09235,1.09235,0,0,0-1.23509.10293c-2.26434,1.74972-4.32283,3.08774-7.71935,3.08774A11.38007,11.38007,0,0,1,58.08089,22.94665,11.4704,11.4704,0,0,1,69.29968,11.31616,12.28749,12.28749,0,0,1,77.019,14.301c.30878.30877.51462.4117.72047.4117a.8896.8896,0,0,0,.61754-.30878l1.13217-1.13217a.92557.92557,0,0,0-.10292-1.44094,15.07718,15.07718,0,0,0-20.68786.61755,15.03918,15.03918,0,0,0-4.42576,10.60124,14.791,14.791,0,0,0,4.42576,10.60124,14.94334,14.94334,0,0,0,10.60124,4.32284,14.32787,14.32787,0,0,0,10.08662-4.01407,1.1687,1.1687,0,0,0,.30878-.82339C79.798,32.7245,79.69506,32.51864,79.48921,32.41572Z" transform="translate(-2.44224 -2.7066)"/><path class="cls-1" d="M90.81093,20.16768a9.07961,9.07961,0,0,0-5.35208,1.95557V9.25767a.92247.92247,0,0,0-.92633-.92632h-1.2351a.92247.92247,0,0,0-.92632.92632V36.42978a.92248.92248,0,0,0,.92632.92633h1.2351a.92248.92248,0,0,0,.92632-.92633v-10.91a7.93757,7.93757,0,0,1,5.14623-2.16142c2.26434,0,3.49944,1.54387,3.49944,4.42576v8.64567a.92248.92248,0,0,0,.92633.92633h1.338a.92248.92248,0,0,0,.92633-.92633V27.78411C97.3981,22.94665,95.03084,20.16768,90.81093,20.16768Z" transform="translate(-2.44224 -2.7066)"/><path class="cls-1" d="M102.85311,12.55126a2.11059,2.11059,0,0,0-2.16142,2.16142,2.174,2.174,0,0,0,2.16142,2.16142,2.11059,2.11059,0,0,0,2.16142-2.16142A2.174,2.174,0,0,0,102.85311,12.55126Z" transform="translate(-2.44224 -2.7066)"/><path class="cls-1" d="M103.47066,20.57938h-1.2351a.92247.92247,0,0,0-.92632.92633V36.32686a.92247.92247,0,0,0,.92632.92632h1.2351a.92247.92247,0,0,0,.92632-.92632V21.60863A.94613.94613,0,0,0,103.47066,20.57938Z" transform="translate(-2.44224 -2.7066)"/><path class="cls-1" d="M110.88124,8.33135h-1.23509a.92247.92247,0,0,0-.92633.92632V36.42978a.92248.92248,0,0,0,.92633.92633h1.23509a.92248.92248,0,0,0,.92632-.92633V9.25767A.92248.92248,0,0,0,110.88124,8.33135Z" transform="translate(-2.44224 -2.7066)"/><path class="cls-1" d="M128.996,8.33135h-1.23509a.92247.92247,0,0,0-.92633.92632V21.094a9.76577,9.76577,0,0,0-4.21991-.92632c-4.73453,0-8.02812,3.60236-8.02812,8.74859,0,4.83746,3.39651,8.85153,7.61642,8.85153a7.67,7.67,0,0,0,4.94039-1.95557l.20585.72047a.90113.90113,0,0,0,.92632.8234h.8234a.92247.92247,0,0,0,.92632-.92633V9.25767A1.09449,1.09449,0,0,0,128.996,8.33135Zm-2.26434,15.95332v8.02812a5.1458,5.1458,0,0,1-4.32283,2.57312c-3.08774,0-4.73453-2.98482-4.73453-5.86671,0-3.49943,1.95557-5.66085,5.14623-5.66085A9.09016,9.09016,0,0,1,126.73163,24.28467Z" transform="translate(-2.44224 -2.7066)"/><path class="cls-1" d="M144.43467,20.99108c-.41169-.61755-1.85265-.82339-2.98481-.82339a6.64158,6.64158,0,0,0-4.83745,1.95556l-.20585-.82339a.90161.90161,0,0,0-.92632-.72048h-.72048a.92247.92247,0,0,0-.92632.92633V36.32686a.92247.92247,0,0,0,.92632.92632h1.23509a.92246.92246,0,0,0,.92632-.92632V25.51977a5.17325,5.17325,0,0,1,4.32283-2.16142,5.05579,5.05579,0,0,1,1.54387.30877,1.12742,1.12742,0,0,0,.8234,0,1.02745,1.02745,0,0,0,.41169-.51462l.51463-1.441A.63392.63392,0,0,0,144.43467,20.99108Z" transform="translate(-2.44224 -2.7066)"/><path class="cls-1" d="M152.77158,20.16768a7.80211,7.80211,0,0,0-6.07255,2.67605,9.22433,9.22433,0,0,0-2.16143,6.17548c0,5.14623,3.49943,8.85152,8.234,8.85152a10.17777,10.17777,0,0,0,6.17548-1.95557c.30877-.20585.51462-.4117.51462-.61755a.93439.93439,0,0,0-.30878-.72047,1.807,1.807,0,0,0-.41169-.51462c-.10293-.10293-.20585-.30878-.30878-.41171-.41169-.51462-.8234-.30877-1.23509-.10292l-.10293.10292a7.27481,7.27481,0,0,1-3.91114,1.2351,5.43893,5.43893,0,0,1-5.24917-4.94038h11.63049a.90739.90739,0,0,0,.92632-.8234c0-.30877.10293-.82339.10293-1.13217C160.388,23.46127,157.19734,20.16768,152.77158,20.16768Zm4.32283,7.10181h-9.36615a4.98324,4.98324,0,0,1,4.94039-4.117A4.394,4.394,0,0,1,157.09441,27.26949Z" transform="translate(-2.44224 -2.7066)"/><path class="cls-1" d="M171.298,20.16768a9.62094,9.62094,0,0,0-5.66086,2.0585l-.30878-1.02925a.78266.78266,0,0,0-.8234-.61755h-.8234a.92246.92246,0,0,0-.92631.92632V36.32686a.92246.92246,0,0,0,.92631.92632h1.23509a.92246.92246,0,0,0,.92632-.92632V25.51977a7.85879,7.85879,0,0,1,5.14623-2.26435c2.26434,0,3.49944,1.54387,3.49944,4.42576v8.64568a.92246.92246,0,0,0,.92631.92632h1.338a.92246.92246,0,0,0,.92631-.92632V27.68119C177.88519,22.7408,175.62085,20.16768,171.298,20.16768Z" transform="translate(-2.44224 -2.7066)"/><path class="cls-1" d="M181.17879,17.18287a1.44095,1.44095,0,0,0,0,2.88189h.10293a3.32086,3.32086,0,0,1-1.23509,2.36727h0c-.20585.10292-.20585.30877-.30878.51462a.37809.37809,0,0,0,.10293.30877l.30878.30878c.10293.10292.20585.20585.30878.20585a.78027.78027,0,0,0,.41169-.20585,5.95272,5.95272,0,0,0,1.85265-4.117C182.72266,17.38872,181.59048,17.18287,181.17879,17.18287Z" transform="translate(-2.44224 -2.7066)"/><path class="cls-1" d="M190.442,27.26949l-.20584-.10293c-1.54387-.72047-2.779-1.338-2.779-2.57311,0-.30878.20585-1.441,2.16143-1.441a8.35644,8.35644,0,0,1,3.19067.92632,1.09359,1.09359,0,0,0,.8234.10293,1.05411,1.05411,0,0,0,.61755-.51463l.30878-.61754a1.24566,1.24566,0,0,0-.30878-1.54387,8.842,8.842,0,0,0-4.63161-1.338c-3.91114,0-5.35208,2.676-5.35208,4.42576,0,2.88189,2.47019,4.32284,4.73454,5.455,2.36727,1.13217,3.49944,1.85264,3.49944,3.08774,0,1.02924-1.02925,1.74972-2.47019,1.74972a5.99278,5.99278,0,0,1-3.70529-1.441,1.384,1.384,0,0,0-.8234-.20585.68386.68386,0,0,0-.51463.4117c0,.10292-.10293.20585-.20584.4117a3.20407,3.20407,0,0,1-.4117.61755h0a.93584.93584,0,0,0,.30878,1.13217,8.46949,8.46949,0,0,0,5.455,1.85264,6.5448,6.5448,0,0,0,4.21992-1.44095A4.67117,4.67117,0,0,0,196,32.82742C195.897,29.84261,193.118,28.50458,190.442,27.26949Z" transform="translate(-2.44224 -2.7066)"/><path class="cls-2" d="M95.33961,41.88479h-.61755a.65232.65232,0,0,0-.61755.51463L89.8846,57.11764,85.45884,42.60526a.68912.68912,0,0,0-.72047-.4117h-.10292a.6891.6891,0,0,0-.72047.4117L79.48921,57.11764,75.2693,42.39941a.65231.65231,0,0,0-.61754-.51462H74.0342a.66526.66526,0,0,0-.51462.20585.52152.52152,0,0,0-.10292.51462l5.35208,18.42352a.68383.68383,0,0,0,.51462.4117h.30878c.30877,0,.4117-.10292.61754-.4117l4.52869-14.82115,4.52869,14.82115a.68385.68385,0,0,0,.51462.4117h.30878c.20584,0,.51462-.20585.51462-.4117l5.24916-18.42352a.52155.52155,0,0,0-.10292-.51462A.41094.41094,0,0,0,95.33961,41.88479Z" transform="translate(-2.44224 -2.7066)"/><path class="cls-2" d="M98.83905,45.28131A1.18915,1.18915,0,0,0,97.604,46.5164a1.25154,1.25154,0,0,0,1.2351,1.2351,1.18915,1.18915,0,0,0,1.23509-1.2351A1.25152,1.25152,0,0,0,98.83905,45.28131Z" transform="translate(-2.44224 -2.7066)"/><path class="cls-2" d="M99.14782,49.91292H98.6332a.6641.6641,0,0,0-.61755.61754v9.9837a.59325.59325,0,0,0,.61755.61754h.51462a.59325.59325,0,0,0,.61755-.61754v-9.9837A.66411.66411,0,0,0,99.14782,49.91292Z" transform="translate(-2.44224 -2.7066)"/><path class="cls-2" d="M106.66132,54.54453c-1.54387-.51463-2.36727-1.02925-2.36727-1.85265,0-.51462.4117-1.44094,1.95557-1.44094a4.09488,4.09488,0,0,1,2.26434.72047.67039.67039,0,0,0,.92632-.20585l.20585-.30877a.6704.6704,0,0,0-.20585-.92633,5.52282,5.52282,0,0,0-3.19066-.92632c-2.779,0-3.80821,1.85264-3.80821,3.08774,0,1.95557,1.74972,2.88189,3.49944,3.39651,1.85265.72048,2.779,1.13217,2.779,2.16142,0,.92632-.92632,1.54387-2.26434,1.54387a5.22862,5.22862,0,0,1-2.676-.92633c-.20584-.10292-.30877-.20585-.51462-.20585s-.30878.10293-.4117.30878l-.30878.4117h0c-.20584.30877,0,.61754.20585.82339a5.99316,5.99316,0,0,0,3.70529,1.2351c2.26434,0,4.117-1.441,4.117-3.29359C110.67538,56.0884,108.71981,55.36792,106.66132,54.54453Z" transform="translate(-2.44224 -2.7066)"/><path class="cls-2" d="M122.30588,58.24981a.78624.78624,0,0,0-.51463-.20585c-.20584,0-.30878.10293-.51462.30878h0a4.251,4.251,0,0,1-3.08774,1.44094,4.15217,4.15217,0,0,1-4.117-4.21991,4.06411,4.06411,0,0,1,4.117-4.117,4.72363,4.72363,0,0,1,2.88189,1.13217.79178.79178,0,0,0,1.02925.10292l.20585-.20585a.78027.78027,0,0,0,.20584-.4117.928.928,0,0,0-.10292-.51463,5.236,5.236,0,0,0-4.21991-1.85264,5.97393,5.97393,0,0,0-5.96964,5.96963,5.909,5.909,0,0,0,5.96964,5.96963,5.42168,5.42168,0,0,0,4.42576-2.16141.64562.64562,0,0,0-.10292-.8234Z" transform="translate(-2.44224 -2.7066)"/><path class="cls-2" d="M130.23108,49.60414a5.924,5.924,0,1,0,5.66086,5.86671A5.75635,5.75635,0,0,0,130.23108,49.60414Zm3.91112,5.96963a3.92244,3.92244,0,1,1-7.82228,0,3.91629,3.91629,0,1,1,7.82228,0Z" transform="translate(-2.44224 -2.7066)"/><path class="cls-2" d="M143.92005,49.60414a5.95724,5.95724,0,0,0-3.7053,1.338v-.51462a.65232.65232,0,0,0-.61755-.51462h-.30878a.68828.68828,0,0,0-.72047.61754v9.9837a.59325.59325,0,0,0,.61756.61754h.51462a.59326.59326,0,0,0,.61755-.61754v-7.5135a5.19945,5.19945,0,0,1,3.49944-1.6468c2.36727,0,2.88189,1.85265,2.88189,3.39652v5.76378a.66411.66411,0,0,0,.61756.61754h.51462a.6641.6641,0,0,0,.61755-.61754V54.8533C148.55166,51.45679,146.90487,49.60414,143.92005,49.60414Z" transform="translate(-2.44224 -2.7066)"/><path class="cls-2" d="M155.24176,54.54453c-1.54387-.51463-2.36727-1.02925-2.36727-1.85265,0-.51462.41169-1.44094,1.95556-1.44094a4.09484,4.09484,0,0,1,2.26434.72047.67039.67039,0,0,0,.92632-.20585l.20585-.30877a.6704.6704,0,0,0-.20585-.92633,5.5228,5.5228,0,0,0-3.19067-.92632c-2.779,0-3.80821,1.85264-3.80821,3.08774,0,1.95557,1.74971,2.88189,3.49943,3.39651,1.85265.72048,2.779,1.13217,2.779,2.16142,0,.92632-.92631,1.54387-2.26434,1.54387a5.22859,5.22859,0,0,1-2.676-.92633c-.20585-.10292-.30878-.20585-.51463-.20585s-.30877.10293-.41169.30878l-.30878.4117h0c-.20584.30877,0,.61754.20585.82339a5.99316,5.99316,0,0,0,3.70529,1.2351c2.26434,0,4.117-1.441,4.117-3.29359C159.1529,56.0884,157.30026,55.36792,155.24176,54.54453Z" transform="translate(-2.44224 -2.7066)"/><path class="cls-2" d="M162.8582,49.91292h-.51463a.66411.66411,0,0,0-.61755.61754v9.9837a.59325.59325,0,0,0,.61755.61754h.51463a.59326.59326,0,0,0,.61755-.61754v-9.9837A.66411.66411,0,0,0,162.8582,49.91292Z" transform="translate(-2.44224 -2.7066)"/><path class="cls-2" d="M162.54942,45.28131a1.18915,1.18915,0,0,0-1.23509,1.23509,1.25153,1.25153,0,0,0,1.23509,1.2351,1.18915,1.18915,0,0,0,1.23509-1.2351A1.25152,1.25152,0,0,0,162.54942,45.28131Z" transform="translate(-2.44224 -2.7066)"/><path class="cls-2" d="M172.22433,49.60414a5.95721,5.95721,0,0,0-3.70529,1.338v-.51462a.65233.65233,0,0,0-.61756-.51462h-.30877a.68828.68828,0,0,0-.72047.61754v9.9837a.59325.59325,0,0,0,.61755.61754h.51462a.59326.59326,0,0,0,.61756-.61754v-7.5135a5.19942,5.19942,0,0,1,3.49943-1.6468c2.36727,0,2.8819,1.85265,2.8819,3.39652v5.76378a.6641.6641,0,0,0,.61755.61754h.51462a.66411.66411,0,0,0,.61756-.61754V54.8533C176.85594,51.45679,175.20916,49.60414,172.22433,49.60414Z" transform="translate(-2.44224 -2.7066)"/><path class="cls-3" d="M48.71474,40.34092" transform="translate(-2.44224 -2.7066)"/><path class="cls-3" d="M51.69955,38.79705a18.85714,18.85714,0,0,0-.62383-3.03023c-.14932-1.06374-.32191-2.12547-.532-3.17893a21.83464,21.83464,0,0,0-2.03481-5.3184c.48636-.29182,1.14741-.44151,1.02728-1.03333a5.2649,5.2649,0,0,0-.50348-1.04725c-.63089-1.31224-1.24833-2.632-1.893-3.93747-1.07882-2.18465-2.64567-4.48044-5.218-4.99489h-.20585c-.558-.44581-.4-1.08931-.10293-1.6468.62441.60184,1.094-.14721,1.36532-.6585.29782-.56128,1.1202-1.3816.59025-2.01754,0,0,.10292-.10292-.30878-.10292a9.1563,9.1563,0,0,0,.36435-2.14135,5.4295,5.4295,0,0,0-.1585-2.799l.20585.30878a4.86336,4.86336,0,0,0-1.02924-1.85265l.30877.10293c-.18107-.21156-.40814-.24228-.61755-.4117-.20126-.16282-.32962-.43255-.51462-.61755l.20585.4117a5.42527,5.42527,0,0,0-4.42576-.51462l.51462.10292a6.75915,6.75915,0,0,0-2.26434,1.02925l.30877-.10293c-.86206.88141-2.21071,2.52818-1.74971,3.91114l.10292-.4117a19.2593,19.2593,0,0,0,.06481,3.47994c.08325.68469-.21645,1.32829-.09512,2.02193a4.50571,4.50571,0,0,0,1.05956,1.80578,8.7427,8.7427,0,0,1-1.95557.92632,9.22767,9.22767,0,0,0-1.98295,1.00847,11.49719,11.49719,0,0,0-1.93577,3.88309A17.115,17.115,0,0,0,28.64442,26.549l.61755.4117a22.66847,22.66847,0,0,0-.8234,5.35208,3.15421,3.15421,0,0,1-.68243-1.81253,28.65429,28.65429,0,0,1-.392-3.69835,10.67587,10.67587,0,0,0-.39241-2.7075,8.03422,8.03422,0,0,1-.59162-3.0004l.30877-.20585a6.91151,6.91151,0,0,0-.3837-1.8748,3.61761,3.61761,0,0,0-1.26309-1.21294h-.10293v-.10293h0A3.89162,3.89162,0,0,0,23.78,17.10493c-.36144-.18476-.69728-.42446-1.0529-.6215-.4377-.24254-.90035-.44887-1.32813-.70834-.30363-.18417-.72571-.65071-1.09143-.65071a1.32128,1.32128,0,0,0,.82339-.20585h.10293a12.55041,12.55041,0,0,0,1.44666-2.02872c.5454-.84084.30975-1.66452.406-2.60289a13.04685,13.04685,0,0,0,0-3.29359c.32081-.32081-.04817-1.34352-.29734-1.6387-.32975-.39064-.88284-.57073-1.24653-.93442,0-.23655-.25089-.61755-.51462-.61755,0-.6821-1.35761-.77439-1.74972-.61755,0-.10292-.10293-.10292-.20585-.10292A1.515,1.515,0,0,0,17.765,2.74527c-.16891.0366-.95687.24211-.95687.43984a2.04361,2.04361,0,0,0-2.16142.8234c-.77895-.77894-1.605,2.18065-1.74972,2.47019-1.17259,0-.30326,3.27248-.20585,3.80822-.10292,0-.10292.10292-.20585.10292-.8035.80351-.1815,1.44648-.4117,2.36727-.42879.2144-.76808.62526-.51462,1.13217-.20585.20585-.4117.51462-.20585.72047a.37812.37812,0,0,0-.10292.30877,1.47292,1.47292,0,0,0-.92633,1.338l-.10292.10292h0c-1.37662.59769-1.55129,1.85645-1.6468,3.19067l.51463.41169a5.70323,5.70323,0,0,1-.83484,2.86538,9.92384,9.92384,0,0,0-.962,2.68717,35.217,35.217,0,0,1-.95845,3.5647c-.26377.76216-.41326,1.5244-1.15584,1.89569a3.67451,3.67451,0,0,0-1.338,1.02925h0c-.46777.37422-1.48635.96519-1.39109,1.679.0609.45638.21376.22577.48165-.05933.24387-.25955.43916-.54757.70359-.79623l.10292.10293c-.14442.147-1.37307,1.51593-1.20293,1.83173.33472.62128,1.12138-1.31711,1.51171-1.31711-.18408.3068-1.22007,1.60465-1.1,1.93467.20346.55925.71061-.25376.84913-.44307a10.93194,10.93194,0,0,1,.97135-.977l.10293.10293c-.18939.22726-1.10352,1.14837-1.02925,1.44094.16529.65115.98319-.53425,1.13217-.72048-.07065.17637-.13975.73561.16011.73573.2331.00008.48113-.61846.57752-.78719a7.68533,7.68533,0,0,0,.70332-2.11h0c.658-1.31607,1.67672-2.46061,2.38585-3.76459.37881-.69657.75416-1.3953,1.11358-2.10211a6.75485,6.75485,0,0,0,.59285-1.70443c.07716-.3637.05914-1.21191.33348-1.48624a21.31,21.31,0,0,1,.61141,3.53042,25.65749,25.65749,0,0,1-.41252,2.59718c-.16529,1.35594-.31673,2.71341-.44334,4.07356a41.98671,41.98671,0,0,0-.28761,5.81123,5.28394,5.28394,0,0,0,.21042,1.78072c.2626.30285,1.34413.19081,1.76258.21871.29561,1.1607.70241,2.28272,1.03995,3.42986.15986.54326.19088,1.815.60685,2.231.09278.56025.10107,1.12812.1971,1.68792a4.504,4.504,0,0,0,.42045,1.50275c-.22074.344.15867,1.3866.28736,1.78842.168.52447.3206,1.05382.49067,1.57775.1731.53327.37328,1.043.593,1.55389.1244.28921.39283,1.41689.68744,1.5642a.80626.80626,0,0,0,.20585.72047c-.01767.12567-.09037.52718,0,.61755,0,0,0,.4117.20585.51463-.28008.25126-.23745.64686-.33165.98064-.1211.42913-.26859.85178-.38883,1.2837-.07952.08231-.74363,1.02925-.30877,1.02925-.429.429-1.179,1.04628-.84913,1.724.36574.75149,1.79715.64569,2.469.63.40972-.00956,1.14372.01821,1.46787-.29551.31855-.3083.33563-1.05688.599-1.44381.33873-.49771,2.10746-1.989.9449-2.57026-.07846-.50388-.15646-2.20053-.82339-2.36726-.17061-.84055-.29761-1.67309-.45452-2.51466-.16982-.9108.01183-1.77041-.12556-2.67613a5.148,5.148,0,0,0-.58306-1.73692c-.31232-.50382-.63893-.76326-.68951-1.37072-.21787-2.61681,0-5.33585,0-7.96367l1.64679,7.9252c-.33745.99832.61755,1.69706.61755,2.676h0c0,.6835.54,1.263.72128,1.89446.18938.65963.04669,1.37952.20234,2.05349a1.63328,1.63328,0,0,0,3.16633.38363,3.97313,3.97313,0,0,0-.06683-3.25128A17.84158,17.84158,0,0,1,23.7555,51.148a12.39623,12.39623,0,0,1-.36419-1.52072,4.99876,4.99876,0,0,0-.71652-2.80212s0-.30877-.20585-.4117c0,0,0-.4117-.20585-.51462.43689-1.30782.51181-2.72047,1.02925-4.01407h.4117a31.77067,31.77067,0,0,0,1.11379-5.59844,16.01177,16.01177,0,0,0-1.31964-7.16421h-.10292c-.37476-.7673-.06881-2.11731-.0534-2.93408.01844-.9773.04852-1.95515.0534-2.93262a5.40085,5.40085,0,0,1,.23219,2.12436,7.54922,7.54922,0,0,0,.43116,2.02709c.324.958.63833,1.91958.986,2.86936.24562.671.55489,1.28864.86323,1.93183a13.07971,13.07971,0,0,1,.64642,1.44217,5.9375,5.9375,0,0,0,.54626,1.54445c0,.86668.40412,3.37553,1.85265,2.47019.20585.20585.30877,0,.30877,0a1.22858,1.22858,0,0,0,.51462-.20585,1.03679,1.03679,0,0,0-.10292-.30877h0c.05476-.10952.1471-.72047.30877-.72047h0c.49724-1.2431-.30493-2.59709.17556-3.78833.5614-1.39187,1.20275-2.75145,1.78-4.13687a41.42439,41.42439,0,0,0,.21125,4.68382,7.09941,7.09941,0,0,1-.31417,2.52091c-.07564.313-.70041,1.54788-.20585,1.64679a20.85342,20.85342,0,0,1-.2527,4.19867,15.2508,15.2508,0,0,0-.57071,3.72653s.72048.20585,1.02925.30878C31.757,48.579,33.276,51.33121,33.276,54.33868a.82308.82308,0,0,0,.10293.8234s-.30878.10292-.30878.30877c-.33056-.0405-.45858.2512-.4117.56609.03417.2295.27392.38585.20585.46316a4.86967,4.86967,0,0,0-.51462,1.74972c-.43028.78158-.859,2.08728-.08849,2.79511a3.05019,3.05019,0,0,0,2.60249.34394c1.275-.39337,1.04343-1.45971,1.25611-2.4912.14487-.70266,1.21352-1.80316.65565-2.5005a3.77652,3.77652,0,0,0-.23253-1.87933c-.0948-.19929-.51864-1.31133-.69379-1.31133-.0297-1.19746-.05542-2.39625-.04428-3.5941.00443-.47635.04678-.94878.05817-1.42389.01391-.58-.47384-1.67855-.21974-2.18674.874.467.6837-1.074.89941-1.62414.10984-.28014.35-.49025.46954-.777.1086-.26053-.11168-1.0983-.03093-1.0983.11893-.24791.81937-1.95193,1.10677-1.882.07774.0189-.20356,3.0193-.20014,3.30733.00538.453-.24564,2.42469.43139,2.28,1.14281,3.71411,1.13217,7.764,1.13217,11.63049-.23217.26659-.62966,1.21239-.41168,1.54387-.49058.70363-.36006,1.86791-.61755,2.676-.38437.40841-1.06239,1.48869-.67473,2.08136.29914.45736,1.53089.39134,1.97606.40656.749.02559,1.90823.09653,2.49481-.47915.34086-.33452.94012-1.543.62962-2.00877a3.593,3.593,0,0,0-.10293-2.26434s0-.51463-.20585-.4117a.80372.80372,0,0,0-.20585-.51463c.25157-1.761.44963-3.53025.643-5.29843.23319-2.13267.89015-4.99252-.02541-7.05253.3912,0,1.34841.19545,1.6468-.10292.78739-.19779,1.265-.10209,1.10005-.95679a18.50709,18.50709,0,0,1-.2775-2.9751c-.04584-1.50718-.17149-3.0071-.30793-4.50793.5467-.23726.26441-1.19133,0-1.54387a29.02363,29.02363,0,0,1-.15439-4.68308,22.85584,22.85584,0,0,0-.03106-2.3293,14.73955,14.73955,0,0,1-.32917-2.55962c.0195.156.02891,1.22063.41169,1.02925,1.17524,2.46791,2.604,4.807,3.77449,7.278a2.70533,2.70533,0,0,1,.328,1.32744c-.00191.70744.1631,1.26766.22032,1.94622.02954.35034-.17564,1.29055.51844,1.05593.51731-.17486.2098-1.11664.40788-1.521a2.35841,2.35841,0,0,1-.10292,2.05849c-.57574.00221-.899.72048-.10293.72048.35033.31072,1.0688-.55418,1.338-.8234A1.37666,1.37666,0,0,0,51.69955,38.79705ZM12.38233,15.43315h0c.325-.325.86118-.71526.51462-1.23509,1.02929.25732.78745-.5816,1.338-1.13218a.665.665,0,0,0,.92632-.10292c.13314.33285.45614.98809.24455,1.33143-.13789.22376-.45756.28109-.71256.37224C13.92914,14.93978,13.15208,15.17657,12.38233,15.43315Z" transform="translate(-2.44224 -2.7066)"/><path class="cls-3" d="M48.71474,40.34092" transform="translate(-2.44224 -2.7066)"/><path class="cls-2" d="M51.69955,38.79705a18.85714,18.85714,0,0,0-.62383-3.03023c-.14932-1.06374-.32191-2.12547-.532-3.17893a21.83464,21.83464,0,0,0-2.03481-5.3184c.48636-.29182,1.14741-.44151,1.02728-1.03333a5.2649,5.2649,0,0,0-.50348-1.04725c-.63089-1.31224-1.24833-2.632-1.893-3.93747-1.07882-2.18465-2.64567-4.48044-5.218-4.99489h-.20585c-.558-.44581-.4-1.08931-.10293-1.6468.62441.60184,1.094-.14721,1.36532-.6585.29782-.56128,1.1202-1.3816.59025-2.01754,0,0,.10292-.10292-.30878-.10292a9.1563,9.1563,0,0,0,.36435-2.14135,5.4295,5.4295,0,0,0-.1585-2.799l.20585.30878a4.86336,4.86336,0,0,0-1.02924-1.85265l.30877.10293c-.18107-.21156-.40814-.24228-.61755-.4117-.20126-.16282-.32962-.43255-.51462-.61755l.20585.4117a5.42527,5.42527,0,0,0-4.42576-.51462l.51462.10292a6.75915,6.75915,0,0,0-2.26434,1.02925l.30877-.10293c-.86206.88141-2.21071,2.52818-1.74971,3.91114l.10292-.4117a19.2593,19.2593,0,0,0,.06481,3.47994c.08325.68469-.21645,1.32829-.09512,2.02193a4.50571,4.50571,0,0,0,1.05956,1.80578,8.7427,8.7427,0,0,1-1.95557.92632,9.22767,9.22767,0,0,0-1.98295,1.00847,11.49719,11.49719,0,0,0-1.93577,3.88309A17.115,17.115,0,0,0,28.64442,26.549l.61755.4117a22.66847,22.66847,0,0,0-.8234,5.35208,3.15421,3.15421,0,0,1-.68243-1.81253,28.65429,28.65429,0,0,1-.392-3.69835,10.67587,10.67587,0,0,0-.39241-2.7075,8.03422,8.03422,0,0,1-.59162-3.0004l.30877-.20585a6.91151,6.91151,0,0,0-.3837-1.8748,3.61761,3.61761,0,0,0-1.26309-1.21294h-.10293v-.10293h0A3.89162,3.89162,0,0,0,23.78,17.10493c-.36144-.18476-.69728-.42446-1.0529-.6215-.4377-.24254-.90035-.44887-1.32813-.70834-.30363-.18417-.72571-.65071-1.09143-.65071a1.32128,1.32128,0,0,0,.82339-.20585h.10293a12.55041,12.55041,0,0,0,1.44666-2.02872c.5454-.84084.30975-1.66452.406-2.60289a13.04685,13.04685,0,0,0,0-3.29359c.32081-.32081-.04817-1.34352-.29734-1.6387-.32975-.39064-.88284-.57073-1.24653-.93442,0-.23655-.25089-.61755-.51462-.61755,0-.6821-1.35761-.77439-1.74972-.61755,0-.10292-.10293-.10292-.20585-.10292A1.515,1.515,0,0,0,17.765,2.74527c-.16891.0366-.95687.24211-.95687.43984a2.04361,2.04361,0,0,0-2.16142.8234c-.77895-.77894-1.605,2.18065-1.74972,2.47019-1.17259,0-.30326,3.27248-.20585,3.80822-.10292,0-.10292.10292-.20585.10292-.8035.80351-.1815,1.44648-.4117,2.36727-.42879.2144-.76808.62526-.51462,1.13217-.20585.20585-.4117.51462-.20585.72047a.37812.37812,0,0,0-.10292.30877,1.47292,1.47292,0,0,0-.92633,1.338l-.10292.10292h0c-1.37662.59769-1.55129,1.85645-1.6468,3.19067l.51463.41169a5.70323,5.70323,0,0,1-.83484,2.86538,9.92384,9.92384,0,0,0-.962,2.68717,35.217,35.217,0,0,1-.95845,3.5647c-.26377.76216-.41326,1.5244-1.15584,1.89569a3.67451,3.67451,0,0,0-1.338,1.02925h0c-.46777.37422-1.48635.96519-1.39109,1.679.0609.45638.21376.22577.48165-.05933.24387-.25955.43916-.54757.70359-.79623l.10292.10293c-.14442.147-1.37307,1.51593-1.20293,1.83173.33472.62128,1.12138-1.31711,1.51171-1.31711-.18408.3068-1.22007,1.60465-1.1,1.93467.20346.55925.71061-.25376.84913-.44307a10.93194,10.93194,0,0,1,.97135-.977l.10293.10293c-.18939.22726-1.10352,1.14837-1.02925,1.44094.16529.65115.98319-.53425,1.13217-.72048-.07065.17637-.13975.73561.16011.73573.2331.00008.48113-.61846.57752-.78719a7.68533,7.68533,0,0,0,.70332-2.11h0c.658-1.31607,1.67672-2.46061,2.38585-3.76459.37881-.69657.75416-1.3953,1.11358-2.10211a6.75485,6.75485,0,0,0,.59285-1.70443c.07716-.3637.05914-1.21191.33348-1.48624a21.31,21.31,0,0,1,.61141,3.53042,25.65749,25.65749,0,0,1-.41252,2.59718c-.16529,1.35594-.31673,2.71341-.44334,4.07356a41.98671,41.98671,0,0,0-.28761,5.81123,5.28394,5.28394,0,0,0,.21042,1.78072c.2626.30285,1.34413.19081,1.76258.21871.29561,1.1607.70241,2.28272,1.03995,3.42986.15986.54326.19088,1.815.60685,2.231.09278.56025.10107,1.12812.1971,1.68792a4.504,4.504,0,0,0,.42045,1.50275c-.22074.344.15867,1.3866.28736,1.78842.168.52447.3206,1.05382.49067,1.57775.1731.53327.37328,1.043.593,1.55389.1244.28921.39283,1.41689.68744,1.5642a.80626.80626,0,0,0,.20585.72047c-.01767.12567-.09037.52718,0,.61755,0,0,0,.4117.20585.51463-.28008.25126-.23745.64686-.33165.98064-.1211.42913-.26859.85178-.38883,1.2837-.07952.08231-.74363,1.02925-.30877,1.02925-.429.429-1.179,1.04628-.84913,1.724.36574.75149,1.79715.64569,2.469.63.40972-.00956,1.14372.01821,1.46787-.29551.31855-.3083.33563-1.05688.599-1.44381.33873-.49771,2.10746-1.989.9449-2.57026-.07846-.50388-.15646-2.20053-.82339-2.36726-.17061-.84055-.29761-1.67309-.45452-2.51466-.16982-.9108.01183-1.77041-.12556-2.67613a5.148,5.148,0,0,0-.58306-1.73692c-.31232-.50382-.63893-.76326-.68951-1.37072-.21787-2.61681,0-5.33585,0-7.96367l1.64679,7.9252c-.33745.99832.61755,1.69706.61755,2.676h0c0,.6835.54,1.263.72128,1.89446.18938.65963.04669,1.37952.20234,2.05349a1.63328,1.63328,0,0,0,3.16633.38363,3.97313,3.97313,0,0,0-.06683-3.25128A17.84158,17.84158,0,0,1,23.7555,51.148a12.39623,12.39623,0,0,1-.36419-1.52072,4.99876,4.99876,0,0,0-.71652-2.80212s0-.30877-.20585-.4117c0,0,0-.4117-.20585-.51462.43689-1.30782.51181-2.72047,1.02925-4.01407h.4117a31.77067,31.77067,0,0,0,1.11379-5.59844,16.01177,16.01177,0,0,0-1.31964-7.16421h-.10292c-.37476-.7673-.06881-2.11731-.0534-2.93408.01844-.9773.04852-1.95515.0534-2.93262a5.40085,5.40085,0,0,1,.23219,2.12436,7.54922,7.54922,0,0,0,.43116,2.02709c.324.958.63833,1.91958.986,2.86936.24562.671.55489,1.28864.86323,1.93183a13.07971,13.07971,0,0,1,.64642,1.44217,5.9375,5.9375,0,0,0,.54626,1.54445c0,.86668.40412,3.37553,1.85265,2.47019.20585.20585.30877,0,.30877,0a1.22858,1.22858,0,0,0,.51462-.20585,1.03679,1.03679,0,0,0-.10292-.30877h0c.05476-.10952.1471-.72047.30877-.72047h0c.49724-1.2431-.30493-2.59709.17556-3.78833.5614-1.39187,1.20275-2.75145,1.78-4.13687a41.42439,41.42439,0,0,0,.21125,4.68382,7.09941,7.09941,0,0,1-.31417,2.52091c-.07564.313-.70041,1.54788-.20585,1.64679a20.85342,20.85342,0,0,1-.2527,4.19867,15.2508,15.2508,0,0,0-.57071,3.72653s.72048.20585,1.02925.30878C31.757,48.579,33.276,51.33121,33.276,54.33868a.82308.82308,0,0,0,.10293.8234s-.30878.10292-.30878.30877c-.33056-.0405-.45858.2512-.4117.56609.03417.2295.27392.38585.20585.46316a4.86967,4.86967,0,0,0-.51462,1.74972c-.43028.78158-.859,2.08728-.08849,2.79511a3.05019,3.05019,0,0,0,2.60249.34394c1.275-.39337,1.04343-1.45971,1.25611-2.4912.14487-.70266,1.21352-1.80316.65565-2.5005a3.77652,3.77652,0,0,0-.23253-1.87933c-.0948-.19929-.51864-1.31133-.69379-1.31133-.0297-1.19746-.05542-2.39625-.04428-3.5941.00443-.47635.04678-.94878.05817-1.42389.01391-.58-.47384-1.67855-.21974-2.18674.874.467.6837-1.074.89941-1.62414.10984-.28014.35-.49025.46954-.777.1086-.26053-.11168-1.0983-.03093-1.0983.11893-.24791.81937-1.95193,1.10677-1.882.07774.0189-.20356,3.0193-.20014,3.30733.00538.453-.24564,2.42469.43139,2.28,1.14281,3.71411,1.13217,7.764,1.13217,11.63049-.23217.26659-.62966,1.21239-.41168,1.54387-.49058.70363-.36006,1.86791-.61755,2.676-.38437.40841-1.06239,1.48869-.67473,2.08136.29914.45736,1.53089.39134,1.97606.40656.749.02559,1.90823.09653,2.49481-.47915.34086-.33452.94012-1.543.62962-2.00877a3.593,3.593,0,0,0-.10293-2.26434s0-.51463-.20585-.4117a.80372.80372,0,0,0-.20585-.51463c.25157-1.761.44963-3.53025.643-5.29843.23319-2.13267.89015-4.99252-.02541-7.05253.3912,0,1.34841.19545,1.6468-.10292.78739-.19779,1.265-.10209,1.10005-.95679a18.50709,18.50709,0,0,1-.2775-2.9751c-.04584-1.50718-.17149-3.0071-.30793-4.50793.5467-.23726.26441-1.19133,0-1.54387a29.02363,29.02363,0,0,1-.15439-4.68308,22.85584,22.85584,0,0,0-.03106-2.3293,14.73955,14.73955,0,0,1-.32917-2.55962c.0195.156.02891,1.22063.41169,1.02925,1.17524,2.46791,2.604,4.807,3.77449,7.278a2.70533,2.70533,0,0,1,.328,1.32744c-.00191.70744.1631,1.26766.22032,1.94622.02954.35034-.17564,1.29055.51844,1.05593.51731-.17486.2098-1.11664.40788-1.521a2.35841,2.35841,0,0,1-.10292,2.05849c-.57574.00221-.899.72048-.10293.72048.35033.31072,1.0688-.55418,1.338-.8234A1.37666,1.37666,0,0,0,51.69955,38.79705ZM12.38233,15.43315h0c.325-.325.86118-.71526.51462-1.23509,1.02929.25732.78745-.5816,1.338-1.13218a.665.665,0,0,0,.92632-.10292c.13314.33285.45614.98809.24455,1.33143-.13789.22376-.45756.28109-.71256.37224C13.92914,14.93978,13.15208,15.17657,12.38233,15.43315Z" transform="translate(-2.44224 -2.7066)"/><path class="cls-1" d="M10.73553,83.77513h1.44095v6.17548l5.14623-6.17548h1.54387L13.5145,90.15646l5.86671,6.38132H17.63149l-5.455-6.07255v6.07255H10.73553Z" transform="translate(-2.44224 -2.7066)"/><path class="cls-1" d="M20.6163,83.77513h1.2351v1.74972H20.6163Zm0,3.39652h1.2351v9.26322H20.6163Z" transform="translate(-2.44224 -2.7066)"/><path class="cls-1" d="M33.58481,96.53779h-1.2351V94.58222a3.98214,3.98214,0,0,1-3.80821,2.16142A4.72908,4.72908,0,0,1,23.704,91.80325a4.623,4.623,0,0,1,4.73453-4.83746,3.98366,3.98366,0,0,1,3.80822,2.16142V83.77512h1.23509V96.53779Zm-8.54275-4.73453a3.62109,3.62109,0,0,0,3.70529,3.70528,3.7374,3.7374,0,0,0,2.676-1.13217,3.86,3.86,0,0,0,0-5.24915A3.26646,3.26646,0,0,0,28.85027,88.098a3.65218,3.65218,0,0,0-3.80821,3.70529Z" transform="translate(-2.44224 -2.7066)"/><path class="cls-1" d="M40.172,89.53891A1.408,1.408,0,0,0,38.62812,87.995a1.543,1.543,0,0,0-1.6468,1.54387c0,.92632.72048,1.23509,1.85265,1.54387,1.338.4117,2.779.72047,2.88189,2.676a2.89165,2.89165,0,0,1-3.08774,2.98482,2.94331,2.94331,0,0,1-3.19067-2.8819h1.2351a1.922,1.922,0,0,0,1.95557,1.85265,1.67329,1.67329,0,0,0,1.74972-1.74972c0-1.02924-.72047-1.44094-2.36727-1.95557-1.338-.4117-2.36726-.92632-2.36726-2.36727a2.70717,2.70717,0,0,1,2.88189-2.676,2.52881,2.52881,0,0,1,2.779,2.57312Z" transform="translate(-2.44224 -2.7066)"/><path class="cls-1" d="M57.978,96.53779h-1.2351V94.58222a3.98215,3.98215,0,0,1-3.80821,2.16142,4.72908,4.72908,0,0,1-4.83746-4.94039,4.623,4.623,0,0,1,4.73453-4.83746,3.98366,3.98366,0,0,1,3.80821,2.16142V83.77512H57.875V96.53779Zm-8.64568-4.73453a3.62109,3.62109,0,0,0,3.70529,3.70528,3.7374,3.7374,0,0,0,2.676-1.13217,3.86,3.86,0,0,0,0-5.24915A3.26646,3.26646,0,0,0,53.14049,88.098a3.71377,3.71377,0,0,0-3.80821,3.70529Z" transform="translate(-2.44224 -2.7066)"/><path class="cls-1" d="M60.96277,92.215a3.50619,3.50619,0,0,0,3.60237,3.39651A3.4249,3.4249,0,0,0,67.7558,93.6559h1.338a5.144,5.144,0,0,1-1.85264,2.26434,4.75275,4.75275,0,0,1-2.676.72047,4.88919,4.88919,0,1,1-.10293-9.77784A4.78223,4.78223,0,0,1,69.29968,92.112H60.96277Zm7.20473-1.02925a3.59293,3.59293,0,0,0-3.60236-3.19066,3.51434,3.51434,0,0,0-3.60237,3.19066Z" transform="translate(-2.44224 -2.7066)"/><path class="cls-1" d="M75.2693,89.53891A1.408,1.408,0,0,0,73.72543,87.995a1.543,1.543,0,0,0-1.6468,1.54387c0,.92632.72047,1.23509,1.85265,1.54387,1.338.4117,2.779.72047,2.88189,2.676a2.89164,2.89164,0,0,1-3.08774,2.98482,2.9433,2.9433,0,0,1-3.19066-2.8819h1.23509a1.922,1.922,0,0,0,1.95557,1.85265,1.67328,1.67328,0,0,0,1.74972-1.74972c0-1.02924-.72047-1.44094-2.36727-1.95557-1.338-.4117-2.36727-.92632-2.36727-2.36727a2.70717,2.70717,0,0,1,2.88189-2.676,2.52881,2.52881,0,0,1,2.779,2.57312Z" transform="translate(-2.44224 -2.7066)"/><path class="cls-1" d="M79.18044,92.215a3.50618,3.50618,0,0,0,3.60236,3.39651,3.42488,3.42488,0,0,0,3.19066-1.95557h1.338a5.1439,5.1439,0,0,1-1.85265,2.26434,4.75273,4.75273,0,0,1-2.676.72047,4.88919,4.88919,0,1,1-.10293-9.77784A4.78221,4.78221,0,0,1,87.51733,92.112H79.18044Zm7.20472-1.02925a3.59293,3.59293,0,0,0-3.60236-3.19066,3.51432,3.51432,0,0,0-3.60236,3.19066Z" transform="translate(-2.44224 -2.7066)"/><path class="cls-1" d="M89.37,87.17165h1.23509v1.54387a3.1721,3.1721,0,0,1,2.98482-1.74972v1.23509H93.487c-1.74972,0-2.779,1.13217-2.779,3.19067v5.04331H89.47291V87.17165Z" transform="translate(-2.44224 -2.7066)"/><path class="cls-1" d="M99.25075,96.53779h-1.338l-3.70528-9.26322h1.338l2.98482,7.71935,2.98482-7.71935h1.338Z" transform="translate(-2.44224 -2.7066)"/><path class="cls-1" d="M104.397,92.215a3.50618,3.50618,0,0,0,3.60236,3.39651A3.42491,3.42491,0,0,0,111.19,93.6559h1.338a5.1439,5.1439,0,0,1-1.85265,2.26434,4.75273,4.75273,0,0,1-2.676.72047,4.88919,4.88919,0,0,1-.10293-9.77784,4.78223,4.78223,0,0,1,4.83747,5.24916H104.397Zm7.20473-1.02925a3.59293,3.59293,0,0,0-3.60237-3.19066,3.51432,3.51432,0,0,0-3.60236,3.19066Z" transform="translate(-2.44224 -2.7066)"/><path class="cls-1" d="M120.35031,88.20089h-1.85265V87.17165h1.85265V83.67221h1.23509v3.49944h2.05849v1.02924H121.5854v8.234h-1.23509Z" transform="translate(-2.44224 -2.7066)"/><path class="cls-1" d="M124.879,83.77513h1.23509v5.04331a3.33594,3.33594,0,0,1,3.2936-1.74972,3.92178,3.92178,0,0,1,3.08774,1.2351,5.42877,5.42877,0,0,1,.92631,3.29358v5.04331h-1.23509V91.70033a3.71808,3.71808,0,0,0-.72047-2.4702,2.81648,2.81648,0,0,0-2.36727-.92632,2.83163,2.83163,0,0,0-2.98481,3.08774v5.24916H124.879Z" transform="translate(-2.44224 -2.7066)"/><path class="cls-1" d="M136.30363,92.215a3.50619,3.50619,0,0,0,3.60236,3.39651,3.42492,3.42492,0,0,0,3.19067-1.95557h1.338a5.144,5.144,0,0,1-1.85265,2.26434,4.75277,4.75277,0,0,1-2.67605.72047,4.88919,4.88919,0,1,1-.10293-9.77784,4.78221,4.78221,0,0,1,4.83746,5.24916h-8.33689Zm7.20473-1.02925a3.593,3.593,0,0,0-3.60237-3.19066,3.51434,3.51434,0,0,0-3.60236,3.19066Z" transform="translate(-2.44224 -2.7066)"/><path class="cls-1" d="M151.53648,83.77513h1.2351v5.35209a4.62977,4.62977,0,0,1,8.54275,2.676,4.73128,4.73128,0,0,1-4.83746,4.94038,4.13151,4.13151,0,0,1-3.80821-2.16141V96.5378h-1.23509V83.77513Zm8.54275,8.02813a3.70529,3.70529,0,0,0-7.41058,0,3.54218,3.54218,0,0,0,3.60236,3.70528,3.58715,3.58715,0,0,0,3.80822-3.70528Z" transform="translate(-2.44224 -2.7066)"/><path class="cls-1" d="M163.78451,92.215a3.5062,3.5062,0,0,0,3.60237,3.39651,3.42494,3.42494,0,0,0,3.19067-1.95557h1.338a5.1439,5.1439,0,0,1-1.85265,2.26434,4.75275,4.75275,0,0,1-2.676.72047,4.88919,4.88919,0,0,1-.10294-9.77784A4.78221,4.78221,0,0,1,172.1214,92.112h-8.33689Zm7.20473-1.02925a3.593,3.593,0,0,0-3.60236-3.19066,3.51434,3.51434,0,0,0-3.60237,3.19066Z" transform="translate(-2.44224 -2.7066)"/><path class="cls-1" d="M178.09105,89.53891a1.408,1.408,0,0,0-1.54387-1.54387,1.543,1.543,0,0,0-1.6468,1.54387c0,.92632.72047,1.23509,1.85265,1.54387,1.338.4117,2.779.72047,2.88189,2.676a2.89164,2.89164,0,0,1-3.08774,2.98482,2.94331,2.94331,0,0,1-3.19067-2.8819h1.23509a1.922,1.922,0,0,0,1.95557,1.85265,1.67328,1.67328,0,0,0,1.74971-1.74972c0-1.02924-.72047-1.44094-2.36727-1.95557-1.338-.4117-2.36727-.92632-2.36727-2.36727a2.70717,2.70717,0,0,1,2.88189-2.676,2.52881,2.52881,0,0,1,2.779,2.57312Z" transform="translate(-2.44224 -2.7066)"/><path class="cls-1" d="M182.208,88.20089h-1.85265V87.17165H182.208V83.67221h1.23509v3.49944h2.05849v1.02924h-2.05849v8.234H182.208Z" transform="translate(-2.44224 -2.7066)"/><path class="cls-1" d="M187.86889,96.53779h-1.338V94.68514h1.338Z" transform="translate(-2.44224 -2.7066)"/></svg>